<?xml version="1.0" encoding="utf-8"?>
<!-- Generator: Adobe Illustrator 28.2.0, SVG Export Plug-In . SVG Version: 6.00 Build 0)  -->
<svg version="1.1" id="Capa_1" xmlns="http://www.w3.org/2000/svg" xmlns:xlink="http://www.w3.org/1999/xlink" x="0px" y="0px"
	 viewBox="0 0 16 16" style="enable-background:new 0 0 16 16;" xml:space="preserve">
<style type="text/css">
	.st0{fill:#FFFFFF;}
</style>
<path class="st0" d="M6.5,1C5.7,1,5,1.7,5,2.5V3H1.5C0.7,3,0,3.7,0,4.5v8C0,13.3,0.7,14,1.5,14h13c0.8,0,1.5-0.7,1.5-1.5v-8
	C16,3.7,15.3,3,14.5,3H11V2.5C11,1.7,10.3,1,9.5,1H6.5z M6.5,2h3C9.8,2,10,2.2,10,2.5V3H6V2.5C6,2.2,6.2,2,6.5,2z M8.4,8.9L15,7.2
	v5.3c0,0.3-0.2,0.5-0.5,0.5h-13C1.2,13,1,12.8,1,12.5V7.2l6.6,1.8C7.9,9,8.1,9,8.4,8.9z M1.5,4h13C14.8,4,15,4.2,15,4.5v1.6L8.1,7.9
	C8,8,8,8,7.9,7.9L1,6.1V4.5C1,4.2,1.2,4,1.5,4z"/>
</svg>
